<svg width="14" height="14" viewBox="0 0 14 14" fill="none" xmlns="http://www.w3.org/2000/svg">
<path d="M2.48511 6.42836V9.32753C2.48511 10.3892 2.48511 10.3892 3.48844 11.0659L6.24761 12.6584C6.66177 12.8975 7.33844 12.8975 7.75261 12.6584L10.5118 11.0659C11.5151 10.3892 11.5151 10.3892 11.5151 9.32753V6.42836C11.5151 5.36669 11.5151 5.36669 10.5118 4.69003L7.75261 3.09753C7.33844 2.85836 6.66177 2.85836 6.24761 3.09753L3.48844 4.69003C2.48511 5.36669 2.48511 5.36669 2.48511 6.42836Z" stroke="#575757" stroke-linecap="round" stroke-linejoin="round"/>
<path d="M10.2084 4.45085V2.91669C10.2084 1.75002 9.62508 1.16669 8.45841 1.16669H5.54175C4.37508 1.16669 3.79175 1.75002 3.79175 2.91669V4.41002" stroke="#575757" stroke-linecap="round" stroke-linejoin="round"/>
<path d="M7.36753 6.41081L7.70003 6.92998C7.75253 7.01164 7.8692 7.09331 7.9567 7.11664L8.5517 7.26831C8.9192 7.36164 9.01837 7.67664 8.7792 7.96831L8.38837 8.44081C8.33003 8.51664 8.28337 8.65081 8.2892 8.74414L8.3242 9.35664C8.34753 9.73581 8.0792 9.92831 7.7292 9.78831L7.15753 9.56081C7.07003 9.52581 6.9242 9.52581 6.8367 9.56081L6.26503 9.78831C5.91503 9.92831 5.6467 9.72998 5.67003 9.35664L5.70503 8.74414C5.71087 8.65081 5.6642 8.51081 5.60587 8.44081L5.21503 7.96831C4.97587 7.67664 5.07503 7.36164 5.44253 7.26831L6.03753 7.11664C6.13087 7.09331 6.24753 7.00581 6.2942 6.92998L6.6267 6.41081C6.8367 6.09581 7.16337 6.09581 7.36753 6.41081Z" stroke="#575757" stroke-linecap="round" stroke-linejoin="round"/>
</svg>
