<svg width="25" height="24" viewBox="0 0 25 24" fill="none" xmlns="http://www.w3.org/2000/svg">
<path d="M3.25 22H21.25" stroke="#7D7D7D" stroke-width="1.5" stroke-linecap="round" stroke-linejoin="round"/>
<path d="M5.84998 8.38H4.25C3.7 8.38 3.25 8.83 3.25 9.38V18C3.25 18.55 3.7 19 4.25 19H5.84998C6.39998 19 6.84998 18.55 6.84998 18V9.38C6.84998 8.83 6.39998 8.38 5.84998 8.38Z" stroke="#7D7D7D" stroke-width="1.5" stroke-linecap="round" stroke-linejoin="round"/>
<path d="M13.05 5.19H11.45C10.9 5.19 10.45 5.64 10.45 6.19V18C10.45 18.55 10.9 19 11.45 19H13.05C13.6 19 14.05 18.55 14.05 18V6.19C14.05 5.64 13.6 5.19 13.05 5.19Z" stroke="#7D7D7D" stroke-width="1.5" stroke-linecap="round" stroke-linejoin="round"/>
<path d="M20.25 2H18.65C18.1 2 17.65 2.45 17.65 3V18C17.65 18.55 18.1 19 18.65 19H20.25C20.8 19 21.25 18.55 21.25 18V3C21.25 2.45 20.8 2 20.25 2Z" stroke="#7D7D7D" stroke-width="1.5" stroke-linecap="round" stroke-linejoin="round"/>
</svg>
