<svg width="20" height="20" viewBox="0 0 20 20" fill="none" xmlns="http://www.w3.org/2000/svg">
<path d="M3.15543 16.8285H4.59456L13.4086 8.01438L11.9978 6.58938L3.15543 15.4317V16.8285ZM1.84453 19.4785C1.47641 19.4785 1.16355 19.3497 0.905931 19.0921C0.648331 18.8345 0.519531 18.5216 0.519531 18.1535V15.4176C0.519531 15.0661 0.586015 14.7295 0.718981 14.4078C0.851948 14.086 1.04307 13.8005 1.29236 13.5513L13.6913 1.16323C13.9101 0.951628 14.1545 0.79112 14.4244 0.681703C14.6943 0.572287 14.9768 0.517578 15.2717 0.517578C15.5572 0.517578 15.8391 0.572287 16.1174 0.681703C16.3956 0.79112 16.6453 0.955254 16.8663 1.1741L18.8489 3.13933C19.0678 3.35093 19.2301 3.59822 19.3359 3.8812C19.4417 4.16417 19.4946 4.44949 19.4946 4.73718C19.4946 5.03211 19.4417 5.3169 19.3359 5.59153C19.2301 5.86616 19.0678 6.1129 18.8489 6.33175L6.47501 18.7057C6.22574 18.9549 5.94023 19.1461 5.61848 19.279C5.29673 19.412 4.96013 19.4785 4.60868 19.4785H1.84453ZM12.6978 7.30025L11.9978 6.58938L13.4086 8.01438L12.6978 7.30025Z" fill="#2F2F30"/>
</svg>
