<svg width="24" height="12" viewBox="0 0 24 12" fill="none" xmlns="http://www.w3.org/2000/svg">
<path d="M4.26925 7.18842L6.4 5.0577L4.26925 2.92695L2.1385 5.0577L4.26925 7.18842ZM17.6154 6.77882L19.75 3.35577L21.8942 6.77882H17.6154ZM12.0034 5.9519C11.2832 5.9519 10.6699 5.6995 10.1635 5.1947C9.65707 4.6899 9.40387 4.07692 9.40387 3.35577C9.40387 2.62021 9.65627 2.00363 10.1611 1.50605C10.6659 1.00847 11.2788 0.759674 12 0.759674C12.7356 0.759674 13.3521 1.00814 13.8497 1.50507C14.3473 2.00201 14.5961 2.61778 14.5961 3.3524C14.5961 4.0726 14.3477 4.6859 13.8507 5.1923C13.3538 5.6987 12.738 5.9519 12.0034 5.9519ZM12 2.25962C11.6974 2.25962 11.4391 2.36467 11.225 2.57477C11.0109 2.78487 10.9038 3.04521 10.9038 3.35577C10.9038 3.65834 11.0109 3.91668 11.225 4.1308C11.4391 4.3449 11.699 4.45195 12.0048 4.45195C12.3106 4.45195 12.5689 4.3449 12.7798 4.1308C12.9907 3.91668 13.0961 3.65674 13.0961 3.35097C13.0961 3.04521 12.9911 2.78687 12.781 2.57597C12.5709 2.36507 12.3106 2.25962 12 2.25962ZM0.500046 10.3749V10.0211C0.500046 9.34547 0.848613 8.79643 1.54575 8.374C2.2429 7.95157 3.14761 7.74035 4.2599 7.74035C4.46356 7.74035 4.65899 7.74612 4.84617 7.75767C5.03335 7.76921 5.2122 7.79164 5.3827 7.82497C5.19425 8.11984 5.0513 8.43365 4.95387 8.7664C4.85644 9.09915 4.80772 9.4536 4.80772 9.82975V11.2403H1.36542C1.12022 11.2403 0.914687 11.1574 0.748821 10.9915C0.582971 10.8257 0.500046 10.6201 0.500046 10.3749ZM6.5 10.3365V9.86535C6.5 8.91022 7.00823 8.14419 8.0247 7.56727C9.04115 6.99036 10.3671 6.7019 12.0026 6.7019C13.6534 6.7019 14.9823 6.99036 15.9894 7.56727C16.9964 8.14419 17.4999 8.91022 17.4999 9.86535V10.3365C17.4999 10.5926 17.4133 10.8072 17.2401 10.9805C17.0668 11.1537 16.8522 11.2403 16.5961 11.2403H7.40785C7.14751 11.2403 6.93113 11.1537 6.7587 10.9805C6.58625 10.8072 6.50002 10.5926 6.50002 10.3365H6.5ZM19.7499 7.74035C20.8749 7.74035 21.7812 7.95157 22.4687 8.374C23.1562 8.79643 23.4999 9.34547 23.4999 10.0211V10.3749C23.4999 10.6201 23.417 10.8257 23.2511 10.9915C23.0853 11.1574 22.8798 11.2403 22.6346 11.2403H19.1923V9.82825C19.1923 9.4517 19.1477 9.0974 19.0586 8.76535C18.9695 8.4333 18.8359 8.11984 18.6577 7.82497C18.8282 7.79164 19.0051 7.76921 19.1883 7.75767C19.3715 7.74612 19.5588 7.74035 19.75 7.74035H19.7499ZM11.9988 8.20187C10.9599 8.20187 10.067 8.3397 9.32017 8.61535C8.57339 8.89098 8.15897 9.23072 8.07692 9.63457V9.74035H15.9385V9.63457C15.8462 9.23072 15.4308 8.89098 14.6923 8.61535C13.9539 8.3397 13.056 8.20187 11.9988 8.20187Z" fill="#7D23E0"/>
</svg>
