<svg width="20" height="18" viewBox="0 0 20 18" fill="none" xmlns="http://www.w3.org/2000/svg">
<path d="M15.3557 14.9856C15.925 14.9856 16.4134 14.7817 16.8211 14.374C17.2288 13.9663 17.4327 13.4779 17.4327 12.9087C17.4327 12.3394 17.2288 11.851 16.8211 11.4433C16.4134 11.0356 15.925 10.8317 15.3557 10.8317C14.7865 10.8317 14.298 11.0356 13.8904 11.4433C13.4827 11.851 13.2788 12.3394 13.2788 12.9087C13.2788 13.4779 13.4827 13.9663 13.8904 14.374C14.298 14.7817 14.7865 14.9856 15.3557 14.9856ZM15.2231 17.3509C15.0474 17.3509 14.8913 17.292 14.7548 17.174C14.6183 17.0561 14.5346 16.9093 14.5038 16.7336L14.4019 16.1586C14.1122 16.0753 13.8622 15.9766 13.6519 15.8625C13.4416 15.7484 13.2352 15.5958 13.0327 15.4048L12.4327 15.6106C12.2673 15.6644 12.1077 15.6625 11.9538 15.6048C11.8 15.5471 11.6776 15.449 11.5866 15.3106L11.4442 15.0663C11.3532 14.9112 11.318 14.7474 11.3385 14.575C11.359 14.4026 11.4417 14.2574 11.5866 14.1394L12.0404 13.751C11.9686 13.474 11.9327 13.1933 11.9327 12.9087C11.9327 12.624 11.9686 12.3433 12.0404 12.0663L11.5866 11.6779C11.4481 11.5663 11.3654 11.4269 11.3385 11.2596C11.3115 11.0923 11.3436 10.9311 11.4346 10.776L11.6019 10.5068C11.6929 10.3683 11.8128 10.2702 11.9615 10.2125C12.1102 10.1548 12.2673 10.1529 12.4327 10.2068L13.0327 10.4125C13.2352 10.2151 13.4416 10.0609 13.6519 9.95003C13.8622 9.83913 14.1122 9.74201 14.4019 9.65868L14.5038 9.0683C14.5346 8.89265 14.6183 8.74842 14.7548 8.6356C14.8913 8.52279 15.0474 8.46638 15.2231 8.46638H15.4884C15.6641 8.46638 15.8201 8.52535 15.9567 8.6433C16.0932 8.76125 16.1769 8.90805 16.2076 9.08368L16.3096 9.65868C16.5993 9.74201 16.8493 9.83913 17.0596 9.95003C17.2698 10.0609 17.4762 10.2151 17.6788 10.4125L18.2788 10.2068C18.4442 10.1529 18.6038 10.1548 18.7576 10.2125C18.9115 10.2702 19.0339 10.3683 19.1249 10.5068L19.2672 10.751C19.3583 10.9061 19.3935 11.0699 19.373 11.2423C19.3525 11.4147 19.2698 11.5599 19.1249 11.6779L18.6711 12.0663C18.7429 12.3433 18.7788 12.624 18.7788 12.9087C18.7788 13.1933 18.7429 13.474 18.6711 13.751L19.1249 14.1394C19.2634 14.251 19.3461 14.3904 19.373 14.5577C19.3999 14.725 19.3679 14.8862 19.2769 15.0413L19.1096 15.3106C19.0185 15.449 18.8987 15.5471 18.75 15.6048C18.6012 15.6625 18.4442 15.6644 18.2788 15.6106L17.6788 15.4048C17.4762 15.5958 17.2698 15.7484 17.0596 15.8625C16.8493 15.9766 16.5993 16.0753 16.3096 16.1586L16.2076 16.749C16.1769 16.9246 16.0932 17.0689 15.9567 17.1817C15.8201 17.2945 15.6641 17.3509 15.4884 17.3509H15.2231ZM1.49998 14.1491V2.14905V6.51638V6.14905V14.1491ZM1.8077 15.649C1.30257 15.649 0.875 15.474 0.525 15.124C0.175 14.774 0 14.3465 0 13.8413V2.45678C0 1.95165 0.175 1.52408 0.525 1.17408C0.875 0.824078 1.30257 0.649078 1.8077 0.649078H6.54997C6.79099 0.649078 7.02272 0.695879 7.24515 0.789479C7.46758 0.883062 7.66085 1.0119 7.82495 1.176L9.29803 2.64908H17.1923C17.6974 2.64908 18.125 2.82408 18.475 3.17408C18.825 3.52408 19 3.95165 19 4.45678V6.46638C19 6.6792 18.9282 6.8574 18.7846 7.00098C18.641 7.14458 18.4628 7.21638 18.25 7.21638C18.0371 7.21638 17.8589 7.14458 17.7154 7.00098C17.5718 6.8574 17.5 6.6792 17.5 6.46638V4.45678C17.5 4.36703 17.4711 4.2933 17.4134 4.2356C17.3557 4.1779 17.282 4.14905 17.1923 4.14905H8.6846L6.6846 2.14905H1.8077C1.71795 2.14905 1.64423 2.1779 1.58653 2.2356C1.52883 2.2933 1.49998 2.36703 1.49998 2.45678V13.8413C1.49998 13.9311 1.52883 14.0048 1.58653 14.0625C1.64423 14.1202 1.71795 14.1491 1.8077 14.1491H8.89423C9.10704 14.1491 9.28524 14.2208 9.42882 14.3644C9.57242 14.508 9.64423 14.6862 9.64423 14.899C9.64423 15.1118 9.57242 15.29 9.42882 15.4336C9.28524 15.5772 9.10704 15.649 8.89423 15.649H1.8077Z" fill="#7D23E0"/>
</svg>
