<svg width="19" height="20" viewBox="0 0 19 20" fill="none" xmlns="http://www.w3.org/2000/svg">
<path d="M9.5003 14.75C9.7129 14.75 9.89099 14.6781 10.0346 14.5344C10.1782 14.3906 10.25 14.2125 10.25 14V9.74997C10.25 9.53749 10.1781 9.35937 10.0343 9.21562C9.89043 9.07187 9.71223 9 9.49965 9C9.28705 9 9.10896 9.07187 8.96538 9.21562C8.82179 9.35937 8.75 9.53749 8.75 9.74997V14C8.75 14.2125 8.8219 14.3906 8.9657 14.5344C9.10952 14.6781 9.28772 14.75 9.5003 14.75ZM9.49998 7.28847C9.72883 7.28847 9.92065 7.21107 10.0755 7.05627C10.2303 6.90147 10.3077 6.70965 10.3077 6.4808C10.3077 6.25197 10.2303 6.06014 10.0755 5.90532C9.92065 5.75052 9.72883 5.67312 9.49998 5.67312C9.27113 5.67312 9.0793 5.75052 8.9245 5.90532C8.7697 6.06014 8.6923 6.25197 8.6923 6.4808C8.6923 6.70965 8.7697 6.90147 8.9245 7.05627C9.0793 7.21107 9.27113 7.28847 9.49998 7.28847ZM9.50165 19.5C8.18772 19.5 6.95268 19.2506 5.79655 18.752C4.6404 18.2533 3.63472 17.5766 2.7795 16.7217C1.92427 15.8669 1.24721 14.8616 0.748325 13.706C0.249442 12.5504 0 11.3156 0 10.0017C0 8.68774 0.249334 7.45271 0.748 6.29657C1.24667 5.14042 1.92342 4.13474 2.77825 3.27952C3.6331 2.42429 4.63834 1.74723 5.79398 1.24835C6.94959 0.749466 8.18437 0.500023 9.4983 0.500023C10.8122 0.500023 12.0473 0.749357 13.2034 1.24802C14.3596 1.74669 15.3652 2.42344 16.2205 3.27827C17.0757 4.13312 17.7527 5.13837 18.2516 6.294C18.7505 7.44962 19 8.68439 19 9.99832C19 11.3123 18.7506 12.5473 18.252 13.7034C17.7533 14.8596 17.0765 15.8653 16.2217 16.7205C15.3669 17.5757 14.3616 18.2528 13.206 18.7516C12.0504 19.2505 10.8156 19.5 9.50165 19.5ZM9.49998 18C11.7333 18 13.625 17.225 15.175 15.675C16.725 14.125 17.5 12.2333 17.5 10C17.5 7.76667 16.725 5.875 15.175 4.325C13.625 2.775 11.7333 2 9.49998 2C7.26664 2 5.37498 2.775 3.82498 4.325C2.27498 5.875 1.49998 7.76667 1.49998 10C1.49998 12.2333 2.27498 14.125 3.82498 15.675C5.37498 17.225 7.26664 18 9.49998 18Z" fill="#7D23E0"/>
</svg>
