<svg width="28" height="28" viewBox="0 0 28 28" fill="none" xmlns="http://www.w3.org/2000/svg">
<g clip-path="url(#clip0_2_589)">
<path d="M14.0038 2.33334C9.13308 2.33334 7.70858 2.33837 7.43168 2.36133C6.43212 2.4444 5.81014 2.60175 5.13252 2.93905C4.61031 3.19831 4.19847 3.49883 3.79201 3.9201C3.05176 4.68836 2.60313 5.63352 2.44072 6.75703C2.36176 7.30245 2.33879 7.41369 2.33413 10.1997C2.33233 11.1283 2.33413 12.3505 2.33413 13.9898C2.33413 18.8556 2.33951 20.2784 2.36284 20.5547C2.44359 21.5271 2.59613 22.1389 2.91914 22.8081C3.53646 24.0892 4.71547 25.0508 6.10444 25.4097C6.58538 25.5335 7.11656 25.6016 7.79848 25.6339C8.0874 25.6465 11.0322 25.6555 13.9789 25.6555C16.9255 25.6555 19.8721 25.6519 20.1538 25.6375C20.9434 25.6004 21.4019 25.5388 21.9089 25.4079C22.5976 25.2313 23.2395 24.9065 23.7896 24.4563C24.3398 24.006 24.785 23.4411 25.0942 22.801C25.4109 22.1479 25.5715 21.5127 25.6442 20.5911C25.66 20.3901 25.6667 17.1863 25.6667 13.9868C25.6667 10.7867 25.6595 7.5888 25.6437 7.38785C25.5701 6.4513 25.4095 5.82155 25.0825 5.15592C24.8143 4.61103 24.5164 4.20412 24.0839 3.78805C23.3122 3.05101 22.3683 2.60247 21.2433 2.44028C20.6983 2.36151 20.5897 2.33819 17.801 2.33334H14.0038Z" fill="url(#paint0_radial_2_589)"/>
<path d="M14.0041 5.38217C11.6647 5.38217 11.3711 5.3924 10.4523 5.4342C9.53531 5.47619 8.90937 5.62133 8.36168 5.8343C7.79515 6.05426 7.31457 6.34851 6.83579 6.82737C6.35665 7.30605 6.06235 7.78653 5.84162 8.35276C5.62807 8.90052 5.48271 9.52651 5.44144 10.443C5.40052 11.3616 5.38976 11.6553 5.38976 13.9941C5.38976 16.333 5.40016 16.6256 5.4418 17.5443C5.48397 18.4611 5.62915 19.0869 5.84198 19.6345C6.06217 20.2009 6.35647 20.6813 6.83543 21.16C7.31403 21.6391 7.79461 21.934 8.36079 22.154C8.90884 22.367 9.53495 22.5121 10.4518 22.5541C11.3706 22.5959 11.664 22.6061 14.0032 22.6061C16.3427 22.6061 16.6354 22.5959 17.5542 22.5541C18.4712 22.5121 19.0978 22.367 19.6459 22.154C20.2122 21.934 20.6921 21.6391 21.1707 21.16C21.6498 20.6813 21.9442 20.2009 22.1649 19.6346C22.3766 19.0869 22.522 18.4609 22.5651 17.5444C22.6063 16.6258 22.6171 16.333 22.6171 13.9941C22.6171 11.6553 22.6063 11.3618 22.5651 10.4431C22.522 9.52633 22.3766 8.90052 22.1649 8.35294C21.9442 7.78653 21.6498 7.30605 21.1707 6.82737C20.6916 6.34833 20.2124 6.05409 19.6454 5.8343C19.0962 5.62133 18.4699 5.47619 17.5529 5.4342C16.6341 5.3924 16.3416 5.38217 14.0015 5.38217H14.0041ZM13.2313 6.93412C13.4607 6.93376 13.7166 6.93412 14.0041 6.93412C16.3039 6.93412 16.5765 6.94237 17.4847 6.98364C18.3246 7.02204 18.7804 7.16234 19.084 7.28022C19.486 7.43631 19.7726 7.6229 20.0739 7.92432C20.3754 8.22574 20.562 8.5128 20.7185 8.9147C20.8364 9.21791 20.9769 9.67363 21.0151 10.5133C21.0564 11.4211 21.0654 11.6939 21.0654 13.9922C21.0654 16.2905 21.0564 16.5632 21.0151 17.4711C20.9767 18.3107 20.8364 18.7664 20.7185 19.0697C20.5624 19.4715 20.3754 19.7577 20.0739 20.059C19.7724 20.3604 19.4862 20.547 19.084 20.7031C18.7807 20.8215 18.3246 20.9614 17.4847 20.9998C16.5767 21.0411 16.3039 21.05 14.0041 21.05C11.704 21.05 11.4314 21.0411 10.5234 20.9998C9.68354 20.9611 9.22772 20.8208 8.92391 20.7029C8.52193 20.5468 8.23481 20.3602 7.93333 20.0588C7.63185 19.7574 7.44521 19.471 7.28873 19.0689C7.17083 18.7657 7.03032 18.31 6.99209 17.4703C6.95082 16.5625 6.94257 16.2898 6.94257 13.99C6.94257 11.6903 6.95082 11.419 6.99209 10.5111C7.0305 9.67147 7.17083 9.21576 7.28873 8.91218C7.44486 8.51029 7.63185 8.22323 7.93333 7.92181C8.23481 7.62039 8.52193 7.4338 8.92391 7.27734C9.22755 7.15893 9.68354 7.01899 10.5234 6.98041C11.318 6.94453 11.6259 6.93376 13.2313 6.93197V6.93412ZM18.602 8.36407C18.3976 8.36407 18.1977 8.42469 18.0277 8.53826C17.8577 8.65183 17.7252 8.81325 17.647 9.00211C17.5688 9.19097 17.5483 9.39877 17.5882 9.59925C17.6282 9.79973 17.7266 9.98387 17.8712 10.1284C18.0158 10.2729 18.2 10.3713 18.4006 10.4111C18.6011 10.451 18.809 10.4304 18.9978 10.3522C19.1867 10.2739 19.3481 10.1414 19.4616 9.97139C19.5752 9.8014 19.6357 9.60156 19.6357 9.39715C19.6357 8.8266 19.1727 8.36371 18.602 8.36371V8.36407ZM14.0041 9.57154C11.5612 9.57154 9.58053 11.5518 9.58053 13.9941C9.58053 16.4365 11.5612 18.4159 14.0041 18.4159C16.447 18.4159 18.427 16.4365 18.427 13.9941C18.427 11.5518 16.447 9.57154 14.0041 9.57154ZM14.0041 11.1235C15.5897 11.1235 16.8753 12.4086 16.8753 13.9941C16.8753 15.5795 15.5897 16.8648 14.0041 16.8648C12.4182 16.8648 11.1328 15.5795 11.1328 13.9941C11.1328 12.4086 12.4182 11.1235 14.0041 11.1235Z" fill="white"/>
</g>
<defs>
<radialGradient id="paint0_radial_2_589" cx="0" cy="0" r="1" gradientUnits="userSpaceOnUse" gradientTransform="translate(8.53127 27.4518) rotate(-90) scale(23.1139 21.5081)">
<stop stop-color="#FFDD55"/>
<stop offset="0.1" stop-color="#FFDD55"/>
<stop offset="0.5" stop-color="#FF543E"/>
<stop offset="1" stop-color="#C837AB"/>
</radialGradient>
<clipPath id="clip0_2_589">
<rect width="28" height="28" fill="white"/>
</clipPath>
</defs>
</svg>
