<svg width="19" height="18" viewBox="0 0 19 18" fill="none" xmlns="http://www.w3.org/2000/svg">
<path d="M5.25 10.4423V11C5.25 11.1722 5.30626 11.3146 5.41878 11.4272C5.53129 11.5398 5.6736 11.5961 5.8457 11.5961C6.01778 11.5961 6.16023 11.5398 6.27305 11.4272C6.38587 11.3146 6.44228 11.1722 6.44228 11V8.69231C6.44228 8.52009 6.38602 8.37768 6.2735 8.26508C6.16098 8.15246 6.01868 8.09616 5.84658 8.09616C5.67449 8.09616 5.53204 8.15246 5.41923 8.26508C5.30641 8.37768 5.25 8.52009 5.25 8.69231V9.25001H4.34613C4.17391 9.25001 4.0315 9.30627 3.9189 9.41878C3.8063 9.5313 3.75 9.67361 3.75 9.84571C3.75 10.0178 3.8063 10.1602 3.9189 10.2731C4.0315 10.3859 4.17391 10.4423 4.34613 10.4423H5.25ZM8.03843 10.4423H14.6538C14.826 10.4423 14.9685 10.386 15.0811 10.2735C15.1937 10.161 15.25 10.0187 15.25 9.84661C15.25 9.67451 15.1937 9.53205 15.0811 9.41923C14.9685 9.30642 14.826 9.25001 14.6538 9.25001H8.03843C7.86621 9.25001 7.72379 9.30627 7.61118 9.41878C7.49858 9.5313 7.44228 9.67361 7.44228 9.84571C7.44228 10.0178 7.49858 10.1602 7.61118 10.2731C7.72379 10.3859 7.86621 10.4423 8.03843 10.4423ZM13.75 6.75001H14.6538C14.826 6.75001 14.9685 6.69375 15.0811 6.58123C15.1937 6.46872 15.25 6.32641 15.25 6.15431C15.25 5.98222 15.1937 5.83977 15.0811 5.72696C14.9685 5.61414 14.826 5.55773 14.6538 5.55773H13.75V5.00003C13.75 4.82781 13.6937 4.6854 13.5812 4.57278C13.4687 4.46018 13.3264 4.40388 13.1543 4.40388C12.9822 4.40388 12.8397 4.46018 12.7269 4.57278C12.6141 4.6854 12.5577 4.82781 12.5577 5.00003V7.30771C12.5577 7.47992 12.6139 7.62233 12.7265 7.73493C12.839 7.84755 12.9813 7.90386 13.1534 7.90386C13.3255 7.90386 13.4679 7.84755 13.5807 7.73493C13.6935 7.62233 13.75 7.47992 13.75 7.30771V6.75001ZM4.34613 6.75001H10.9615C11.1337 6.75001 11.2762 6.69375 11.3888 6.58123C11.5014 6.46872 11.5577 6.32641 11.5577 6.15431C11.5577 5.98222 11.5014 5.83977 11.3888 5.72696C11.2762 5.61414 11.1337 5.55773 10.9615 5.55773H4.34613C4.17391 5.55773 4.0315 5.61399 3.9189 5.72651C3.8063 5.83902 3.75 5.98132 3.75 6.15341C3.75 6.32551 3.8063 6.46797 3.9189 6.58078C4.0315 6.6936 4.17391 6.75001 4.34613 6.75001ZM1.8077 15.5C1.30257 15.5 0.875 15.325 0.525 14.975C0.175 14.625 0 14.1974 0 13.6923V2.30773C0 1.8026 0.175 1.37503 0.525 1.02503C0.875 0.675031 1.30257 0.500031 1.8077 0.500031H17.1923C17.6974 0.500031 18.125 0.675031 18.475 1.02503C18.825 1.37503 19 1.8026 19 2.30773V13.6923C19 14.1974 18.825 14.625 18.475 14.975C18.125 15.325 17.6974 15.5 17.1923 15.5H13V16.5961C13 16.8522 12.9133 17.0669 12.7401 17.2401C12.5668 17.4134 12.3522 17.5 12.0961 17.5H6.90385C6.64777 17.5 6.43311 17.4134 6.25988 17.2401C6.08663 17.0669 6 16.8522 6 16.5961V15.5H1.8077ZM1.8077 14H17.1923C17.2692 14 17.3397 13.968 17.4038 13.9039C17.4679 13.8397 17.5 13.7692 17.5 13.6923V2.30773C17.5 2.2308 17.4679 2.16027 17.4038 2.09616C17.3397 2.03206 17.2692 2.00001 17.1923 2.00001H1.8077C1.73077 2.00001 1.66024 2.03206 1.59613 2.09616C1.53202 2.16027 1.49998 2.2308 1.49998 2.30773V13.6923C1.49998 13.7692 1.53202 13.8397 1.59613 13.9039C1.66024 13.968 1.73077 14 1.8077 14Z" fill="#7D23E0"/>
</svg>
