<svg width="18" height="20" viewBox="0 0 18 20" fill="none" xmlns="http://www.w3.org/2000/svg">
<path d="M7.89084 19.5C7.54981 19.5 7.25526 19.3868 7.00719 19.1606C6.75913 18.9343 6.60817 18.6558 6.55432 18.325L6.3101 16.4538C6.04215 16.3641 5.76746 16.2384 5.48605 16.0769C5.20463 15.9154 4.95302 15.7423 4.73122 15.5577L2.99852 16.2942C2.68442 16.4327 2.36872 16.4461 2.05142 16.3346C1.73412 16.223 1.48765 16.0205 1.31202 15.7269L0.185095 13.7731C0.00946133 13.4795 -0.0411802 13.1689 0.0331698 12.8414C0.107536 12.5138 0.278045 12.2436 0.544695 12.0308L2.04279 10.9058C2.01971 10.7571 2.00336 10.6077 1.99374 10.4577C1.98413 10.3077 1.97932 10.1583 1.97932 10.0096C1.97932 9.86732 1.98413 9.72276 1.99374 9.57596C2.00336 9.42916 2.01971 9.26858 2.04279 9.09423L0.544695 7.96921C0.278045 7.75639 0.109136 7.48461 0.0379698 7.15386C-0.0331802 6.82309 0.0190697 6.51091 0.19472 6.21733L1.31202 4.29233C1.48765 4.00516 1.73412 3.80421 2.05142 3.68946C2.36872 3.57472 2.68442 3.58658 2.99852 3.72503L4.7216 4.45198C4.96263 4.26095 5.22 4.08626 5.49372 3.92793C5.76745 3.76958 6.03637 3.64233 6.30047 3.54618L6.55432 1.67501C6.60817 1.34426 6.75913 1.06574 7.00719 0.839456C7.25526 0.613173 7.54981 0.500031 7.89084 0.500031H10.1062C10.4472 0.500031 10.7418 0.613173 10.9898 0.839456C11.2379 1.06574 11.3889 1.34426 11.4427 1.67501L11.6869 3.55581C11.9869 3.66477 12.2584 3.79201 12.5014 3.93753C12.7443 4.08305 12.9895 4.25453 13.237 4.45198L15.0081 3.72503C15.3222 3.58658 15.6379 3.57472 15.9552 3.68946C16.2725 3.80421 16.519 4.00516 16.6946 4.29233L17.8119 6.22696C17.9876 6.52054 18.0382 6.83111 17.9639 7.15866C17.8895 7.48621 17.719 7.75639 17.4523 7.96921L15.9158 9.12306C15.9517 9.28461 15.9712 9.43557 15.9744 9.57596C15.9776 9.71634 15.9792 9.85769 15.9792 10C15.9792 10.1359 15.976 10.274 15.9696 10.4144C15.9632 10.5548 15.9401 10.7154 15.9004 10.8962L17.4081 12.0308C17.6748 12.2436 17.8469 12.5138 17.9244 12.8414C18.002 13.1689 17.953 13.4795 17.7773 13.7731L16.6446 15.7173C16.469 16.0109 16.2209 16.2134 15.9004 16.325C15.5799 16.4365 15.2626 16.423 14.9485 16.2846L13.237 15.548C12.9895 15.7455 12.737 15.9202 12.4793 16.0721C12.2216 16.224 11.9575 16.3481 11.6869 16.4442L11.4427 18.325C11.3889 18.6558 11.2379 18.9343 10.9898 19.1606C10.7418 19.3868 10.4472 19.5 10.1062 19.5H7.89084ZM7.99852 18H9.96389L10.3235 15.3212C10.8338 15.1878 11.3001 14.9984 11.7225 14.7529C12.145 14.5074 12.5524 14.1917 12.9447 13.8058L15.4293 14.85L16.4139 13.15L14.2447 11.5154C14.328 11.2564 14.3847 11.0026 14.4149 10.7539C14.445 10.5051 14.46 10.2539 14.46 10C14.46 9.73976 14.445 9.48847 14.4149 9.24616C14.3847 9.00386 14.328 8.75642 14.2447 8.50386L16.4331 6.85001L15.4485 5.15001L12.935 6.20963C12.6004 5.85193 12.1995 5.53591 11.7322 5.26156C11.2649 4.98719 10.7921 4.79296 10.3139 4.67886L9.99852 2.00001H8.0139L7.68315 4.66923C7.17288 4.78975 6.70172 4.97436 6.26967 5.22308C5.83762 5.4718 5.42545 5.79232 5.03315 6.18463L2.54852 5.15001L1.56389 6.85001L3.72352 8.45963C3.64019 8.6968 3.58185 8.94359 3.54852 9.20001C3.51519 9.45642 3.49852 9.7263 3.49852 10.0096C3.49852 10.2699 3.51519 10.525 3.54852 10.775C3.58185 11.025 3.63698 11.2718 3.71389 11.5154L1.56389 13.15L2.54852 14.85L5.02352 13.8C5.403 14.1898 5.80877 14.509 6.24082 14.7577C6.67287 15.0064 7.15044 15.1974 7.67352 15.3308L7.99852 18ZM9.01005 13C9.8421 13 10.5501 12.708 11.1341 12.124C11.718 11.54 12.01 10.832 12.01 10C12.01 9.16797 11.718 8.45997 11.1341 7.87598C10.5501 7.29202 9.8421 7.00003 9.01005 7.00003C8.16776 7.00003 7.45719 7.29202 6.87835 7.87598C6.29951 8.45997 6.0101 9.16797 6.0101 10C6.0101 10.832 6.29951 11.54 6.87835 12.124C7.45719 12.708 8.16776 13 9.01005 13Z" fill="#7D23E0"/>
</svg>
