<svg width="19" height="18" viewBox="0 0 19 18" fill="none" xmlns="http://www.w3.org/2000/svg">
<path d="M9.6346 17.5C9.42178 17.5 9.24358 17.4282 9.1 17.2846C8.95642 17.141 8.88463 16.9628 8.88463 16.75C8.88463 16.5372 8.95642 16.359 9.1 16.2154C9.24358 16.0718 9.42178 16 9.6346 16H16.1923C16.2756 16 16.3477 15.9744 16.4086 15.9231C16.4695 15.8718 16.5 15.8045 16.5 15.7211V8.72691C16.5 6.81537 15.816 5.20608 14.4481 3.89903C13.0801 2.592 11.4307 1.93848 9.49998 1.93848C7.56921 1.93848 5.91985 2.592 4.5519 3.89903C3.18395 5.20608 2.49998 6.81537 2.49998 8.72691V13.8654C2.49998 14.0782 2.42818 14.2564 2.2846 14.4C2.14102 14.5436 1.96282 14.6154 1.75 14.6154C1.27052 14.6154 0.858983 14.4484 0.5154 14.1144C0.1718 13.7804 0 13.3737 0 12.8942V10.9519C0 10.6276 0.0923084 10.3304 0.276925 10.0606C0.461542 9.79072 0.702567 9.57373 1 9.40963L1.04618 8.13271C1.12821 7.04426 1.41089 6.03593 1.89423 5.10773C2.37756 4.17952 2.99743 3.3715 3.75383 2.68368C4.51024 1.99586 5.38332 1.45997 6.37305 1.07601C7.3628 0.692022 8.40511 0.500031 9.49998 0.500031C10.5948 0.500031 11.6346 0.692022 12.6192 1.07601C13.6038 1.45997 14.4769 1.99331 15.2384 2.67601C16 3.35869 16.6198 4.16413 17.098 5.09233C17.5762 6.02053 17.8615 7.02886 17.9538 8.11733L18 9.36926C18.291 9.50642 18.5304 9.70257 18.7182 9.95771C18.906 10.2128 19 10.4974 19 10.8115V13.0442C19 13.3583 18.906 13.6429 18.7182 13.8981C18.5304 14.1532 18.291 14.3493 18 14.4865V15.7211C18 16.2134 17.8233 16.633 17.4701 16.9798C17.1169 17.3266 16.691 17.5 16.1923 17.5H9.6346ZM6.6923 10.7692C6.44743 10.7692 6.23878 10.6862 6.06635 10.5202C5.89392 10.3542 5.8077 10.1487 5.8077 9.90386C5.8077 9.65897 5.89392 9.45192 6.06635 9.28271C6.23878 9.11347 6.44743 9.02886 6.6923 9.02886C6.93717 9.02886 7.14582 9.11347 7.31825 9.28271C7.49068 9.45192 7.5769 9.65897 7.5769 9.90386C7.5769 10.1487 7.49068 10.3542 7.31825 10.5202C7.14582 10.6862 6.93717 10.7692 6.6923 10.7692ZM12.3077 10.7692C12.0628 10.7692 11.8541 10.6862 11.6817 10.5202C11.5093 10.3542 11.423 10.1487 11.423 9.90386C11.423 9.65897 11.5093 9.45192 11.6817 9.28271C11.8541 9.11347 12.0628 9.02886 12.3077 9.02886C12.5525 9.02886 12.7612 9.11347 12.9336 9.28271C13.106 9.45192 13.1923 9.65897 13.1923 9.90386C13.1923 10.1487 13.106 10.3542 12.9336 10.5202C12.7612 10.6862 12.5525 10.7692 12.3077 10.7692ZM3.87115 9.19998C3.7673 7.56795 4.27499 6.17148 5.39423 5.01058C6.51346 3.8497 7.89871 3.26926 9.54998 3.26926C10.9371 3.26926 12.1612 3.69842 13.2221 4.55676C14.283 5.41507 14.9269 6.52628 15.1538 7.89038C13.7333 7.87371 12.4208 7.50064 11.2163 6.77116C10.0118 6.04167 9.08717 5.04168 8.4423 3.77118C8.18845 5.01476 7.6564 6.11411 6.84615 7.06923C6.03588 8.02435 5.04422 8.7346 3.87115 9.19998Z" fill="#7D23E0"/>
</svg>
