<svg width="25" height="24" viewBox="0 0 25 24" fill="none" xmlns="http://www.w3.org/2000/svg">
<path d="M10.8 2.52997L4.78 6.45997C2.85 7.71997 2.85 10.54 4.78 11.8L10.8 15.73C11.88 16.44 13.66 16.44 14.74 15.73L20.73 11.8C22.65 10.54 22.65 7.72997 20.73 6.46997L14.74 2.53997C13.66 1.81997 11.88 1.81997 10.8 2.52997Z" stroke="#7D7D7D" stroke-width="1.5" stroke-linecap="round" stroke-linejoin="round"/>
<path d="M6.38 13.08L6.37 17.77C6.37 19.04 7.35 20.4 8.55 20.8L11.74 21.86C12.29 22.04 13.2 22.04 13.76 21.86L16.95 20.8C18.15 20.4 19.13 19.04 19.13 17.77V13.13" stroke="#7D7D7D" stroke-width="1.5" stroke-linecap="round" stroke-linejoin="round"/>
<path d="M22.15 15V9" stroke="#7D7D7D" stroke-width="1.5" stroke-linecap="round" stroke-linejoin="round"/>
</svg>
