<svg width="19" height="22" viewBox="0 0 19 22" fill="none" xmlns="http://www.w3.org/2000/svg">
<path d="M0.75 21.3077C0.5375 21.3077 0.359375 21.2357 0.215625 21.0919C0.071875 20.9481 0 20.7699 0 20.5573C0 20.3447 0.071875 20.1667 0.215625 20.0231C0.359375 19.8795 0.5375 19.8077 0.75 19.8077H18.25C18.4625 19.8077 18.6406 19.8796 18.7843 20.0234C18.9281 20.1672 19 20.3454 19 20.558C19 20.7706 18.9281 20.9487 18.7843 21.0923C18.6406 21.2359 18.4625 21.3077 18.25 21.3077H0.75ZM2.90385 18.6923C2.64777 18.6923 2.43311 18.6057 2.25988 18.4324C2.08663 18.2592 2 18.0445 2 17.7885V13.3462C1.43718 12.3244 1.00738 11.2965 0.710575 10.2625C0.413792 9.22854 0.2654 8.2122 0.2654 7.21348C0.2654 6.31221 0.380142 5.40356 0.609625 4.48753C0.839108 3.57151 1.14488 2.59684 1.52693 1.5635C1.62179 1.30325 1.77756 1.093 1.99423 0.932753C2.21089 0.772486 2.45768 0.692352 2.7346 0.692352C3.10382 0.692352 3.41727 0.824087 3.67495 1.08755C3.93263 1.351 4.03776 1.66029 3.99033 2.0154L3.72495 4.18463C3.62495 5.0231 3.71341 5.83271 3.99033 6.61348C4.26726 7.39426 4.67463 8.08594 5.21245 8.6885C5.75028 9.29107 6.38971 9.77569 7.13073 10.1424C7.87176 10.509 8.66151 10.6924 9.49998 10.6924C10.5192 10.6924 11.4929 10.7805 12.4211 10.9568C13.3493 11.1331 14.15 11.3872 14.823 11.7193C15.5153 12.0641 16.0512 12.5052 16.4307 13.0424C16.8102 13.5795 17 14.2462 17 15.0423V17.7885C17 18.0445 16.9133 18.2592 16.7401 18.4324C16.5668 18.6057 16.3522 18.6923 16.0961 18.6923H2.90385ZM3.49998 17.1923H15.5V15.0423C15.5 14.6103 15.3904 14.2305 15.1711 13.9029C14.9519 13.5753 14.6333 13.3103 14.2154 13.1077C13.6025 12.8128 12.875 12.5866 12.0327 12.4289C11.1904 12.2712 10.3461 12.1923 9.49998 12.1923C8.43844 12.1923 7.44005 11.9609 6.5048 11.4981C5.56953 11.0353 4.76633 10.4215 4.09518 9.65675C3.42403 8.892 2.91698 8.017 2.57403 7.03175C2.23108 6.04649 2.12306 5.03334 2.24998 3.99233C2.08331 4.49233 1.96248 5.01925 1.88748 5.5731C1.81248 6.12694 1.77498 6.67373 1.77498 7.21348C1.77498 8.12245 1.93459 9.0452 2.25383 9.98175C2.57304 10.9183 2.98843 11.9013 3.49998 12.9308V17.1923ZM9.49998 9.46158C8.53749 9.46158 7.71354 9.11887 7.02813 8.43345C6.34271 7.74805 6 6.9241 6 5.9616C6 4.99912 6.34271 4.17518 7.02813 3.48978C7.71354 2.80436 8.53749 2.46165 9.49998 2.46165C10.4625 2.46165 11.2864 2.80436 11.9718 3.48978C12.6572 4.17518 13 4.99912 13 5.9616C13 6.9241 12.6572 7.74805 11.9718 8.43345C11.2864 9.11887 10.4625 9.46158 9.49998 9.46158ZM9.49998 7.9616C10.05 7.9616 10.5208 7.76577 10.9125 7.3741C11.3041 6.98244 11.5 6.5116 11.5 5.9616C11.5 5.4116 11.3041 4.94077 10.9125 4.5491C10.5208 4.15744 10.05 3.9616 9.49998 3.9616C8.94998 3.9616 8.47914 4.15744 8.08748 4.5491C7.69581 4.94077 7.49998 5.4116 7.49998 5.9616C7.49998 6.5116 7.69581 6.98244 8.08748 7.3741C8.47914 7.76577 8.94998 7.9616 9.49998 7.9616ZM5.76923 18.6923V18.0269C5.76923 17 6.12788 16.1234 6.84518 15.3971C7.56248 14.6709 8.43458 14.3077 9.4615 14.3077H12.4038C12.6163 14.3077 12.7944 14.3796 12.9382 14.5234C13.0819 14.6672 13.1538 14.8454 13.1538 15.058C13.1538 15.2706 13.0819 15.4487 12.9382 15.5923C12.7944 15.7359 12.6163 15.8077 12.4038 15.8077H9.4615C8.84035 15.8077 8.31968 16.0247 7.89948 16.4587C7.47929 16.8926 7.2692 17.4154 7.2692 18.0269V18.6923H5.76923Z" fill="#7D23E0"/>
</svg>
