<svg width="28" height="28" viewBox="0 0 28 28" fill="none" xmlns="http://www.w3.org/2000/svg">
<g clip-path="url(#clip0_2_608)">
<path d="M9.69342 23.6862C18.5253 23.6862 23.3551 16.3696 23.3551 10.0249C23.3551 9.81708 23.3509 9.61023 23.3415 9.40424C24.2813 8.7243 25.0923 7.88238 25.7367 6.91794C24.8763 7.30039 23.9505 7.55782 22.9793 7.67389C23.9706 7.0794 24.7317 6.13915 25.0907 5.01819C24.1481 5.57736 23.117 5.97151 22.0417 6.18368C21.1655 5.25041 19.9182 4.66669 18.5369 4.66669C15.8852 4.66669 13.735 6.81695 13.735 9.46746C13.735 9.84425 13.7772 10.2108 13.8596 10.5623C9.86887 10.3615 6.33022 8.45087 3.96196 5.54569C3.53542 6.27837 3.31105 7.11116 3.31178 7.95895C3.31178 9.62476 4.15947 11.0953 5.44852 11.9556C4.68604 11.9324 3.94028 11.7264 3.27393 11.3551C3.27322 11.3753 3.27322 11.3949 3.27322 11.4165C3.27322 13.7418 4.92831 15.6832 7.12537 16.1231C6.71273 16.2355 6.28693 16.2924 5.85925 16.2921C5.55638 16.2919 5.25421 16.2629 4.95682 16.2055C5.56813 18.1133 7.34071 19.5016 9.44227 19.5404C7.79888 20.8284 5.72865 21.5956 3.47866 21.5956C3.09157 21.5956 2.70919 21.5736 2.33333 21.5292C4.45837 22.8912 6.98166 23.6859 9.69366 23.6859" fill="#1DA1F2"/>
</g>
<defs>
<clipPath id="clip0_2_608">
<rect width="28" height="28" fill="white"/>
</clipPath>
</defs>
</svg>
